<svg width="815" height="221" viewBox="0 0 815 221" fill="none" xmlns="http://www.w3.org/2000/svg">
<g clip-path="url(#clip0_309_789)">
<rect width="815" height="221" rx="20" fill="#F05850"/>
<path d="M104.564 -46C104.564 -46 124.793 67.8119 182.286 110.679C245.957 158.153 314.068 107.487 386.749 142.042C462.617 178.112 539.335 286.33 539.335 286.33" stroke="white" stroke-opacity="0.3" stroke-width="3"/>
<path d="M286 -21C286 -21 396.465 87.7707 478.5 89C564.186 90.2841 635.118 -10.3051 703 42C756.872 83.5095 705.96 135.634 765.5 168.5C807.335 191.593 843 143.5 843 143.5" stroke="white" stroke-opacity="0.3" stroke-width="3"/>
<path d="M792 249.703C792 249.703 712.009 171.451 636 183.203C566.891 193.887 509 269.703 509 269.703" stroke="white" stroke-opacity="0.3" stroke-width="3"/>
<path d="M-21 85C-21 85 19.0011 156.887 75.1128 175.745C137.254 196.629 182.912 151.92 249.818 162.781C319.657 174.119 405 233 405 233" stroke="white" stroke-opacity="0.3" stroke-width="3"/>
<path d="M206.565 85.35C203.205 85.35 200.58 84.5333 198.69 82.9C196.8 81.2433 195.797 78.8983 195.68 75.865C195.657 75.1883 195.645 74.115 195.645 72.645C195.645 71.175 195.657 70.1017 195.68 69.425C195.797 66.4617 196.812 64.175 198.725 62.565C200.662 60.955 203.275 60.15 206.565 60.15C208.782 60.15 210.707 60.5117 212.34 61.235C213.997 61.9583 215.257 62.88 216.12 64C217.007 65.12 217.473 66.275 217.52 67.465C217.52 67.675 217.438 67.85 217.275 67.99C217.135 68.13 216.96 68.2 216.75 68.2H211.64C211.407 68.2 211.22 68.165 211.08 68.095C210.94 68.025 210.823 67.8967 210.73 67.71C210.427 67.0333 209.948 66.45 209.295 65.96C208.642 65.4467 207.732 65.19 206.565 65.19C203.788 65.19 202.33 66.66 202.19 69.6C202.167 70.2533 202.155 71.2683 202.155 72.645C202.155 73.9983 202.167 75.0133 202.19 75.69C202.33 78.77 203.823 80.31 206.67 80.31C208.047 80.31 209.143 79.96 209.96 79.26C210.8 78.5367 211.22 77.44 211.22 75.97V75.305H207.93C207.673 75.305 207.463 75.2233 207.3 75.06C207.137 74.8733 207.055 74.6517 207.055 74.395V71.805C207.055 71.5483 207.137 71.3383 207.3 71.175C207.463 70.9883 207.673 70.895 207.93 70.895H216.75C217.007 70.895 217.217 70.9883 217.38 71.175C217.543 71.3383 217.625 71.5483 217.625 71.805V75.795C217.625 77.7783 217.17 79.4933 216.26 80.94C215.35 82.3633 214.055 83.46 212.375 84.23C210.718 84.9767 208.782 85.35 206.565 85.35ZM229.655 85.35C226.855 85.35 224.65 84.5917 223.04 83.075C221.43 81.5583 220.59 79.3533 220.52 76.46V75.235C220.614 72.4817 221.465 70.335 223.075 68.795C224.709 67.2317 226.89 66.45 229.62 66.45C231.604 66.45 233.272 66.8583 234.625 67.675C236.002 68.4683 237.029 69.565 237.705 70.965C238.405 72.365 238.755 73.975 238.755 75.795V76.635C238.755 76.8683 238.674 77.0783 238.51 77.265C238.347 77.4283 238.137 77.51 237.88 77.51H226.68V77.755C226.727 78.8517 226.995 79.7383 227.485 80.415C227.975 81.0917 228.687 81.43 229.62 81.43C230.204 81.43 230.682 81.3133 231.055 81.08C231.429 80.8233 231.767 80.52 232.07 80.17C232.28 79.9133 232.444 79.7617 232.56 79.715C232.7 79.645 232.91 79.61 233.19 79.61H237.53C237.74 79.61 237.915 79.68 238.055 79.82C238.219 79.9367 238.3 80.1 238.3 80.31C238.3 80.9167 237.95 81.6167 237.25 82.41C236.574 83.2033 235.582 83.8917 234.275 84.475C232.969 85.0583 231.429 85.35 229.655 85.35ZM232.595 74.045V73.975C232.595 72.8317 232.327 71.9333 231.79 71.28C231.277 70.6033 230.554 70.265 229.62 70.265C228.71 70.265 227.987 70.6033 227.45 71.28C226.937 71.9333 226.68 72.8317 226.68 73.975V74.045H232.595ZM251.278 85C246.448 85 244.033 82.7017 244.033 78.105V71.385H241.303C241.047 71.385 240.825 71.3033 240.638 71.14C240.475 70.9767 240.393 70.7667 240.393 70.51V67.675C240.393 67.4183 240.475 67.2083 240.638 67.045C240.825 66.8817 241.047 66.8 241.303 66.8H244.033V61.025C244.033 60.7683 244.115 60.5583 244.278 60.395C244.465 60.2317 244.675 60.15 244.908 60.15H248.968C249.225 60.15 249.435 60.2317 249.598 60.395C249.762 60.5583 249.843 60.7683 249.843 61.025V66.8H254.218C254.475 66.8 254.685 66.8817 254.848 67.045C255.035 67.2083 255.128 67.4183 255.128 67.675V70.51C255.128 70.7667 255.035 70.9767 254.848 71.14C254.685 71.3033 254.475 71.385 254.218 71.385H249.843V77.615C249.843 79.3417 250.508 80.205 251.838 80.205H254.533C254.79 80.205 255 80.2867 255.163 80.45C255.327 80.6133 255.408 80.8233 255.408 81.08V84.125C255.408 84.3583 255.327 84.5683 255.163 84.755C255 84.9183 254.79 85 254.533 85H251.278ZM263.854 85C263.667 85 263.492 84.93 263.329 84.79C263.189 84.6267 263.119 84.4517 263.119 84.265C263.119 84.125 263.13 84.02 263.154 83.95L271.379 61.48C271.449 61.2 271.6 60.9667 271.834 60.78C272.067 60.5933 272.37 60.5 272.744 60.5H277.924C278.297 60.5 278.6 60.5933 278.834 60.78C279.067 60.9667 279.219 61.2 279.289 61.48L287.479 83.95L287.549 84.265C287.549 84.4517 287.467 84.6267 287.304 84.79C287.164 84.93 286.989 85 286.779 85H282.474C281.914 85 281.54 84.755 281.354 84.265L279.989 80.695H270.644L269.314 84.265C269.127 84.755 268.742 85 268.159 85H263.854ZM278.589 75.655L275.334 66.415L272.079 75.655H278.589ZM290.797 85C290.564 85 290.354 84.9183 290.167 84.755C290.004 84.5683 289.922 84.3583 289.922 84.125V61.025C289.922 60.7683 290.004 60.5583 290.167 60.395C290.354 60.2317 290.564 60.15 290.797 60.15H294.927C295.184 60.15 295.394 60.2317 295.557 60.395C295.721 60.5583 295.802 60.7683 295.802 61.025V84.125C295.802 84.3817 295.721 84.5917 295.557 84.755C295.394 84.9183 295.184 85 294.927 85H290.797ZM308.337 85.35C305.537 85.35 303.332 84.5917 301.722 83.075C300.112 81.5583 299.272 79.3533 299.202 76.46V75.235C299.295 72.4817 300.147 70.335 301.757 68.795C303.39 67.2317 305.572 66.45 308.302 66.45C310.285 66.45 311.954 66.8583 313.307 67.675C314.684 68.4683 315.71 69.565 316.387 70.965C317.087 72.365 317.437 73.975 317.437 75.795V76.635C317.437 76.8683 317.355 77.0783 317.192 77.265C317.029 77.4283 316.819 77.51 316.562 77.51H305.362V77.755C305.409 78.8517 305.677 79.7383 306.167 80.415C306.657 81.0917 307.369 81.43 308.302 81.43C308.885 81.43 309.364 81.3133 309.737 81.08C310.11 80.8233 310.449 80.52 310.752 80.17C310.962 79.9133 311.125 79.7617 311.242 79.715C311.382 79.645 311.592 79.61 311.872 79.61H316.212C316.422 79.61 316.597 79.68 316.737 79.82C316.9 79.9367 316.982 80.1 316.982 80.31C316.982 80.9167 316.632 81.6167 315.932 82.41C315.255 83.2033 314.264 83.8917 312.957 84.475C311.65 85.0583 310.11 85.35 308.337 85.35ZM311.277 74.045V73.975C311.277 72.8317 311.009 71.9333 310.472 71.28C309.959 70.6033 309.235 70.265 308.302 70.265C307.392 70.265 306.669 70.6033 306.132 71.28C305.619 71.9333 305.362 72.8317 305.362 73.975V74.045H311.277ZM321.593 85C321.337 85 321.127 84.9183 320.963 84.755C320.8 84.5917 320.718 84.3817 320.718 84.125V67.675C320.718 67.4183 320.8 67.2083 320.963 67.045C321.127 66.8817 321.337 66.8 321.593 66.8H325.618C325.875 66.8 326.085 66.8933 326.248 67.08C326.435 67.2433 326.528 67.4417 326.528 67.675V69.075C327.812 67.5583 329.538 66.8 331.708 66.8H333.248C333.505 66.8 333.715 66.8817 333.878 67.045C334.042 67.2083 334.123 67.4183 334.123 67.675V71.28C334.123 71.5133 334.042 71.7233 333.878 71.91C333.715 72.0733 333.505 72.155 333.248 72.155H329.853C328.897 72.155 328.15 72.4233 327.613 72.96C327.1 73.4733 326.843 74.2083 326.843 75.165V84.125C326.843 84.3817 326.75 84.5917 326.563 84.755C326.4 84.9183 326.19 85 325.933 85H321.593ZM345.922 85C341.092 85 338.677 82.7017 338.677 78.105V71.385H335.947C335.69 71.385 335.469 71.3033 335.282 71.14C335.119 70.9767 335.037 70.7667 335.037 70.51V67.675C335.037 67.4183 335.119 67.2083 335.282 67.045C335.469 66.8817 335.69 66.8 335.947 66.8H338.677V61.025C338.677 60.7683 338.759 60.5583 338.922 60.395C339.109 60.2317 339.319 60.15 339.552 60.15H343.612C343.869 60.15 344.079 60.2317 344.242 60.395C344.405 60.5583 344.487 60.7683 344.487 61.025V66.8H348.862C349.119 66.8 349.329 66.8817 349.492 67.045C349.679 67.2083 349.772 67.4183 349.772 67.675V70.51C349.772 70.7667 349.679 70.9767 349.492 71.14C349.329 71.3033 349.119 71.385 348.862 71.385H344.487V77.615C344.487 79.3417 345.152 80.205 346.482 80.205H349.177C349.434 80.205 349.644 80.2867 349.807 80.45C349.97 80.6133 350.052 80.8233 350.052 81.08V84.125C350.052 84.3583 349.97 84.5683 349.807 84.755C349.644 84.9183 349.434 85 349.177 85H345.922ZM360.44 85.35C358.55 85.35 356.963 85.0817 355.68 84.545C354.42 84.0083 353.486 83.3667 352.88 82.62C352.273 81.8733 351.97 81.2083 351.97 80.625C351.97 80.3917 352.051 80.205 352.215 80.065C352.401 79.9017 352.6 79.82 352.81 79.82H356.8C356.94 79.82 357.068 79.8783 357.185 79.995C357.465 80.1817 357.675 80.3333 357.815 80.45C358.328 80.8233 358.771 81.1033 359.145 81.29C359.541 81.4533 360.02 81.535 360.58 81.535C361.256 81.535 361.805 81.4067 362.225 81.15C362.668 80.87 362.89 80.485 362.89 79.995C362.89 79.5983 362.773 79.2833 362.54 79.05C362.33 78.8167 361.91 78.595 361.28 78.385C360.65 78.1517 359.693 77.9067 358.41 77.65C356.473 77.2533 354.98 76.6117 353.93 75.725C352.903 74.815 352.39 73.6017 352.39 72.085C352.39 71.1283 352.693 70.2183 353.3 69.355C353.906 68.4917 354.805 67.7917 355.995 67.255C357.208 66.7183 358.643 66.45 360.3 66.45C361.956 66.45 363.403 66.7067 364.64 67.22C365.876 67.7333 366.81 68.3633 367.44 69.11C368.093 69.8333 368.42 70.4983 368.42 71.105C368.42 71.315 368.338 71.5017 368.175 71.665C368.035 71.8283 367.86 71.91 367.65 71.91H364.01C363.823 71.91 363.648 71.8517 363.485 71.735C363.181 71.5717 362.913 71.3967 362.68 71.21C362.283 70.9067 361.91 70.6733 361.56 70.51C361.21 70.3467 360.778 70.265 360.265 70.265C359.658 70.265 359.168 70.405 358.795 70.685C358.445 70.965 358.27 71.3267 358.27 71.77C358.27 72.12 358.363 72.4117 358.55 72.645C358.76 72.8783 359.18 73.1117 359.81 73.345C360.463 73.555 361.42 73.7767 362.68 74.01C364.943 74.4067 366.588 75.1067 367.615 76.11C368.665 77.1133 369.19 78.2917 369.19 79.645C369.19 81.3717 368.42 82.76 366.88 83.81C365.34 84.8367 363.193 85.35 360.44 85.35ZM381.007 85C380.773 85 380.563 84.9183 380.377 84.755C380.213 84.5683 380.132 84.3583 380.132 84.125V61.375C380.132 61.1183 380.213 60.9083 380.377 60.745C380.563 60.5817 380.773 60.5 381.007 60.5H397.107C397.363 60.5 397.573 60.5817 397.737 60.745C397.9 60.9083 397.982 61.1183 397.982 61.375V64.91C397.982 65.1433 397.9 65.3533 397.737 65.54C397.573 65.7033 397.363 65.785 397.107 65.785H386.292V70.93H396.407C396.663 70.93 396.873 71.0233 397.037 71.21C397.2 71.3733 397.282 71.5833 397.282 71.84V75.34C397.282 75.5733 397.2 75.7833 397.037 75.97C396.873 76.1333 396.663 76.215 396.407 76.215H386.292V84.125C386.292 84.3817 386.21 84.5917 386.047 84.755C385.883 84.9183 385.673 85 385.417 85H381.007ZM409.651 85.35C406.757 85.35 404.529 84.6617 402.966 83.285C401.402 81.9083 400.551 79.9717 400.411 77.475C400.387 77.1717 400.376 76.6467 400.376 75.9C400.376 75.1533 400.387 74.6283 400.411 74.325C400.551 71.8517 401.426 69.9267 403.036 68.55C404.646 67.15 406.851 66.45 409.651 66.45C412.474 66.45 414.691 67.15 416.301 68.55C417.911 69.9267 418.786 71.8517 418.926 74.325C418.949 74.6283 418.961 75.1533 418.961 75.9C418.961 76.6467 418.949 77.1717 418.926 77.475C418.786 79.9717 417.934 81.9083 416.371 83.285C414.807 84.6617 412.567 85.35 409.651 85.35ZM409.651 81.08C410.677 81.08 411.436 80.7767 411.926 80.17C412.416 79.54 412.696 78.5833 412.766 77.3C412.789 77.0667 412.801 76.6 412.801 75.9C412.801 75.2 412.789 74.7333 412.766 74.5C412.696 73.24 412.404 72.295 411.891 71.665C411.401 71.035 410.654 70.72 409.651 70.72C407.714 70.72 406.687 71.98 406.571 74.5L406.536 75.9L406.571 77.3C406.617 78.5833 406.886 79.54 407.376 80.17C407.889 80.7767 408.647 81.08 409.651 81.08ZM423.312 85C423.055 85 422.845 84.9183 422.682 84.755C422.519 84.5917 422.437 84.3817 422.437 84.125V67.675C422.437 67.4183 422.519 67.2083 422.682 67.045C422.845 66.8817 423.055 66.8 423.312 66.8H427.337C427.594 66.8 427.804 66.8933 427.967 67.08C428.154 67.2433 428.247 67.4417 428.247 67.675V69.075C429.53 67.5583 431.257 66.8 433.427 66.8H434.967C435.224 66.8 435.434 66.8817 435.597 67.045C435.76 67.2083 435.842 67.4183 435.842 67.675V71.28C435.842 71.5133 435.76 71.7233 435.597 71.91C435.434 72.0733 435.224 72.155 434.967 72.155H431.572C430.615 72.155 429.869 72.4233 429.332 72.96C428.819 73.4733 428.562 74.2083 428.562 75.165V84.125C428.562 84.3817 428.469 84.5917 428.282 84.755C428.119 84.9183 427.909 85 427.652 85H423.312ZM446.358 85C446.125 85 445.915 84.9183 445.728 84.755C445.565 84.5683 445.483 84.3583 445.483 84.125V61.375C445.483 61.1183 445.565 60.9083 445.728 60.745C445.915 60.5817 446.125 60.5 446.358 60.5H450.068C450.652 60.5 451.048 60.7217 451.258 61.165L459.798 74.605V61.375C459.798 61.1183 459.88 60.9083 460.043 60.745C460.23 60.5817 460.44 60.5 460.673 60.5H464.873C465.13 60.5 465.34 60.5817 465.503 60.745C465.667 60.9083 465.748 61.1183 465.748 61.375V84.09C465.748 84.3467 465.667 84.5683 465.503 84.755C465.34 84.9183 465.13 85 464.873 85H461.128C460.615 85 460.23 84.7783 459.973 84.335L451.433 71.385V84.125C451.433 84.3583 451.352 84.5683 451.188 84.755C451.025 84.9183 450.815 85 450.558 85H446.358ZM478.654 85.35C475.854 85.35 473.649 84.5917 472.039 83.075C470.429 81.5583 469.589 79.3533 469.519 76.46V75.235C469.613 72.4817 470.464 70.335 472.074 68.795C473.708 67.2317 475.889 66.45 478.619 66.45C480.603 66.45 482.271 66.8583 483.624 67.675C485.001 68.4683 486.028 69.565 486.704 70.965C487.404 72.365 487.754 73.975 487.754 75.795V76.635C487.754 76.8683 487.673 77.0783 487.509 77.265C487.346 77.4283 487.136 77.51 486.879 77.51H475.679V77.755C475.726 78.8517 475.994 79.7383 476.484 80.415C476.974 81.0917 477.686 81.43 478.619 81.43C479.203 81.43 479.681 81.3133 480.054 81.08C480.428 80.8233 480.766 80.52 481.069 80.17C481.279 79.9133 481.443 79.7617 481.559 79.715C481.699 79.645 481.909 79.61 482.189 79.61H486.529C486.739 79.61 486.914 79.68 487.054 79.82C487.218 79.9367 487.299 80.1 487.299 80.31C487.299 80.9167 486.949 81.6167 486.249 82.41C485.573 83.2033 484.581 83.8917 483.274 84.475C481.968 85.0583 480.428 85.35 478.654 85.35ZM481.594 74.045V73.975C481.594 72.8317 481.326 71.9333 480.789 71.28C480.276 70.6033 479.553 70.265 478.619 70.265C477.709 70.265 476.986 70.6033 476.449 71.28C475.936 71.9333 475.679 72.8317 475.679 73.975V74.045H481.594ZM495.564 85C495.237 85 494.98 84.93 494.794 84.79C494.63 84.6267 494.502 84.405 494.409 84.125L489.369 67.92L489.299 67.57C489.299 67.36 489.38 67.185 489.544 67.045C489.707 66.8817 489.894 66.8 490.104 66.8H493.709C493.989 66.8 494.222 66.8817 494.409 67.045C494.595 67.185 494.712 67.3483 494.759 67.535L497.699 77.545L500.849 67.57C500.895 67.3833 501.012 67.2083 501.199 67.045C501.385 66.8817 501.63 66.8 501.934 66.8H504.244C504.547 66.8 504.792 66.8817 504.979 67.045C505.165 67.2083 505.282 67.3833 505.329 67.57L508.479 77.545L511.419 67.535C511.465 67.3483 511.582 67.185 511.769 67.045C511.955 66.8817 512.189 66.8 512.469 66.8H516.074C516.284 66.8 516.47 66.8817 516.634 67.045C516.797 67.185 516.879 67.36 516.879 67.57L516.809 67.92L511.769 84.125C511.675 84.405 511.535 84.6267 511.349 84.79C511.185 84.93 510.94 85 510.614 85H507.464C506.857 85 506.472 84.7083 506.309 84.125L503.089 74.535L499.869 84.125C499.705 84.7083 499.32 85 498.714 85H495.564ZM527.74 85C527.507 85 527.297 84.9183 527.11 84.755C526.947 84.5683 526.865 84.3583 526.865 84.125V61.375C526.865 61.1183 526.947 60.9083 527.11 60.745C527.297 60.5817 527.507 60.5 527.74 60.5H537.54C540.527 60.5 542.872 61.1883 544.575 62.565C546.302 63.9417 547.165 65.9483 547.165 68.585C547.165 71.1983 546.313 73.17 544.61 74.5C542.907 75.8067 540.55 76.46 537.54 76.46H533.375V84.125C533.375 84.3817 533.282 84.5917 533.095 84.755C532.932 84.9183 532.722 85 532.465 85H527.74ZM537.365 71.63C538.392 71.63 539.197 71.3733 539.78 70.86C540.363 70.3233 540.655 69.5417 540.655 68.515C540.655 67.5583 540.375 66.8 539.815 66.24C539.278 65.6567 538.462 65.365 537.365 65.365H533.27V71.63H537.365ZM558.537 85.35C555.644 85.35 553.416 84.6617 551.852 83.285C550.289 81.9083 549.437 79.9717 549.297 77.475C549.274 77.1717 549.262 76.6467 549.262 75.9C549.262 75.1533 549.274 74.6283 549.297 74.325C549.437 71.8517 550.312 69.9267 551.922 68.55C553.532 67.15 555.737 66.45 558.537 66.45C561.361 66.45 563.577 67.15 565.187 68.55C566.797 69.9267 567.672 71.8517 567.812 74.325C567.836 74.6283 567.847 75.1533 567.847 75.9C567.847 76.6467 567.836 77.1717 567.812 77.475C567.672 79.9717 566.821 81.9083 565.257 83.285C563.694 84.6617 561.454 85.35 558.537 85.35ZM558.537 81.08C559.564 81.08 560.322 80.7767 560.812 80.17C561.302 79.54 561.582 78.5833 561.652 77.3C561.676 77.0667 561.687 76.6 561.687 75.9C561.687 75.2 561.676 74.7333 561.652 74.5C561.582 73.24 561.291 72.295 560.777 71.665C560.287 71.035 559.541 70.72 558.537 70.72C556.601 70.72 555.574 71.98 555.457 74.5L555.422 75.9L555.457 77.3C555.504 78.5833 555.772 79.54 556.262 80.17C556.776 80.7767 557.534 81.08 558.537 81.08ZM579.934 85.35C577.04 85.35 574.812 84.6617 573.249 83.285C571.685 81.9083 570.834 79.9717 570.694 77.475C570.67 77.1717 570.659 76.6467 570.659 75.9C570.659 75.1533 570.67 74.6283 570.694 74.325C570.834 71.8517 571.709 69.9267 573.319 68.55C574.929 67.15 577.134 66.45 579.934 66.45C582.757 66.45 584.974 67.15 586.584 68.55C588.194 69.9267 589.069 71.8517 589.209 74.325C589.232 74.6283 589.244 75.1533 589.244 75.9C589.244 76.6467 589.232 77.1717 589.209 77.475C589.069 79.9717 588.217 81.9083 586.654 83.285C585.09 84.6617 582.85 85.35 579.934 85.35ZM579.934 81.08C580.96 81.08 581.719 80.7767 582.209 80.17C582.699 79.54 582.979 78.5833 583.049 77.3C583.072 77.0667 583.084 76.6 583.084 75.9C583.084 75.2 583.072 74.7333 583.049 74.5C582.979 73.24 582.687 72.295 582.174 71.665C581.684 71.035 580.937 70.72 579.934 70.72C577.997 70.72 576.97 71.98 576.854 74.5L576.819 75.9L576.854 77.3C576.9 78.5833 577.169 79.54 577.659 80.17C578.172 80.7767 578.93 81.08 579.934 81.08ZM593.595 85C593.362 85 593.152 84.9183 592.965 84.755C592.802 84.5683 592.72 84.3583 592.72 84.125V61.025C592.72 60.7683 592.802 60.5583 592.965 60.395C593.152 60.2317 593.362 60.15 593.595 60.15H597.725C597.982 60.15 598.192 60.2317 598.355 60.395C598.519 60.5583 598.6 60.7683 598.6 61.025V84.125C598.6 84.3817 598.519 84.5917 598.355 84.755C598.192 84.9183 597.982 85 597.725 85H593.595ZM610.225 85.35C608.335 85.35 606.748 85.0817 605.465 84.545C604.205 84.0083 603.272 83.3667 602.665 82.62C602.058 81.8733 601.755 81.2083 601.755 80.625C601.755 80.3917 601.837 80.205 602 80.065C602.187 79.9017 602.385 79.82 602.595 79.82H606.585C606.725 79.82 606.853 79.8783 606.97 79.995C607.25 80.1817 607.46 80.3333 607.6 80.45C608.113 80.8233 608.557 81.1033 608.93 81.29C609.327 81.4533 609.805 81.535 610.365 81.535C611.042 81.535 611.59 81.4067 612.01 81.15C612.453 80.87 612.675 80.485 612.675 79.995C612.675 79.5983 612.558 79.2833 612.325 79.05C612.115 78.8167 611.695 78.595 611.065 78.385C610.435 78.1517 609.478 77.9067 608.195 77.65C606.258 77.2533 604.765 76.6117 603.715 75.725C602.688 74.815 602.175 73.6017 602.175 72.085C602.175 71.1283 602.478 70.2183 603.085 69.355C603.692 68.4917 604.59 67.7917 605.78 67.255C606.993 66.7183 608.428 66.45 610.085 66.45C611.742 66.45 613.188 66.7067 614.425 67.22C615.662 67.7333 616.595 68.3633 617.225 69.11C617.878 69.8333 618.205 70.4983 618.205 71.105C618.205 71.315 618.123 71.5017 617.96 71.665C617.82 71.8283 617.645 71.91 617.435 71.91H613.795C613.608 71.91 613.433 71.8517 613.27 71.735C612.967 71.5717 612.698 71.3967 612.465 71.21C612.068 70.9067 611.695 70.6733 611.345 70.51C610.995 70.3467 610.563 70.265 610.05 70.265C609.443 70.265 608.953 70.405 608.58 70.685C608.23 70.965 608.055 71.3267 608.055 71.77C608.055 72.12 608.148 72.4117 608.335 72.645C608.545 72.8783 608.965 73.1117 609.595 73.345C610.248 73.555 611.205 73.7767 612.465 74.01C614.728 74.4067 616.373 75.1067 617.4 76.11C618.45 77.1133 618.975 78.2917 618.975 79.645C618.975 81.3717 618.205 82.76 616.665 83.81C615.125 84.8367 612.978 85.35 610.225 85.35Z" fill="white"/>
<rect x="329" y="131" width="157" height="47" rx="23.5" fill="black"/>
<path d="M379.778 161.18C378.71 161.18 377.792 161.018 377.024 160.694C376.256 160.37 375.674 159.944 375.278 159.416C374.882 158.888 374.672 158.318 374.648 157.706C374.648 157.598 374.684 157.508 374.756 157.436C374.828 157.364 374.918 157.328 375.026 157.328H376.628C376.772 157.328 376.88 157.358 376.952 157.418C377.036 157.466 377.114 157.55 377.186 157.67C377.306 158.078 377.582 158.42 378.014 158.696C378.446 158.972 379.034 159.11 379.778 159.11C380.63 159.11 381.272 158.972 381.704 158.696C382.136 158.408 382.352 158.012 382.352 157.508C382.352 157.172 382.238 156.896 382.01 156.68C381.794 156.464 381.464 156.278 381.02 156.122C380.588 155.966 379.94 155.774 379.076 155.546C377.66 155.21 376.622 154.766 375.962 154.214C375.314 153.65 374.99 152.852 374.99 151.82C374.99 151.124 375.176 150.506 375.548 149.966C375.932 149.426 376.478 149 377.186 148.688C377.906 148.376 378.74 148.22 379.688 148.22C380.672 148.22 381.524 148.394 382.244 148.742C382.964 149.09 383.51 149.528 383.882 150.056C384.266 150.572 384.47 151.088 384.494 151.604C384.494 151.712 384.458 151.802 384.386 151.874C384.314 151.946 384.224 151.982 384.116 151.982H382.442C382.19 151.982 382.016 151.868 381.92 151.64C381.848 151.256 381.608 150.938 381.2 150.686C380.792 150.422 380.288 150.29 379.688 150.29C379.016 150.29 378.488 150.416 378.104 150.668C377.72 150.92 377.528 151.286 377.528 151.766C377.528 152.102 377.624 152.378 377.816 152.594C378.008 152.81 378.308 153.002 378.716 153.17C379.136 153.338 379.736 153.524 380.516 153.728C381.572 153.968 382.412 154.238 383.036 154.538C383.672 154.838 384.14 155.216 384.44 155.672C384.74 156.128 384.89 156.71 384.89 157.418C384.89 158.186 384.674 158.858 384.242 159.434C383.822 159.998 383.222 160.43 382.442 160.73C381.674 161.03 380.786 161.18 379.778 161.18ZM387.097 150.092C386.977 150.092 386.875 150.05 386.791 149.966C386.707 149.882 386.665 149.78 386.665 149.66V148.364C386.665 148.244 386.707 148.142 386.791 148.058C386.875 147.974 386.977 147.932 387.097 147.932H388.735C388.855 147.932 388.957 147.974 389.041 148.058C389.137 148.142 389.185 148.244 389.185 148.364V149.66C389.185 149.78 389.143 149.882 389.059 149.966C388.975 150.05 388.867 150.092 388.735 150.092H387.097ZM387.169 161C387.049 161 386.947 160.958 386.863 160.874C386.779 160.79 386.737 160.688 386.737 160.568V152.072C386.737 151.952 386.779 151.85 386.863 151.766C386.947 151.682 387.049 151.64 387.169 151.64H388.663C388.795 151.64 388.897 151.682 388.969 151.766C389.053 151.838 389.095 151.94 389.095 152.072V160.568C389.095 160.688 389.053 160.79 388.969 160.874C388.897 160.958 388.795 161 388.663 161H387.169ZM395.713 164.96C394.645 164.96 393.781 164.78 393.121 164.42C392.461 164.072 391.993 163.67 391.717 163.214C391.441 162.758 391.303 162.368 391.303 162.044C391.303 161.936 391.345 161.84 391.429 161.756C391.525 161.672 391.627 161.63 391.735 161.63H393.301C393.409 161.63 393.499 161.654 393.571 161.702C393.655 161.762 393.721 161.864 393.769 162.008C393.889 162.332 394.081 162.602 394.345 162.818C394.621 163.046 395.047 163.16 395.623 163.16C396.343 163.16 396.871 162.998 397.207 162.674C397.555 162.35 397.729 161.792 397.729 161V159.776C397.069 160.556 396.145 160.946 394.957 160.946C393.709 160.946 392.767 160.562 392.131 159.794C391.507 159.026 391.171 157.994 391.123 156.698L391.105 156.212L391.123 155.726C391.171 154.454 391.513 153.428 392.149 152.648C392.785 151.856 393.721 151.46 394.957 151.46C395.593 151.46 396.151 151.58 396.631 151.82C397.111 152.06 397.513 152.39 397.837 152.81V152.09C397.837 151.958 397.879 151.85 397.963 151.766C398.047 151.682 398.149 151.64 398.269 151.64H399.727C399.847 151.64 399.949 151.688 400.033 151.784C400.117 151.868 400.159 151.97 400.159 152.09L400.177 160.766C400.177 162.098 399.805 163.13 399.061 163.862C398.317 164.594 397.201 164.96 395.713 164.96ZM395.623 159.038C396.307 159.038 396.817 158.822 397.153 158.39C397.501 157.958 397.693 157.43 397.729 156.806C397.741 156.71 397.747 156.512 397.747 156.212C397.747 155.924 397.741 155.732 397.729 155.636C397.693 155 397.501 154.466 397.153 154.034C396.817 153.602 396.307 153.386 395.623 153.386C394.327 153.386 393.643 154.184 393.571 155.78L393.553 156.212C393.553 157.064 393.703 157.748 394.003 158.264C394.315 158.78 394.855 159.038 395.623 159.038ZM403.007 161C402.887 161 402.785 160.958 402.701 160.874C402.617 160.79 402.575 160.688 402.575 160.568V152.072C402.575 151.952 402.617 151.85 402.701 151.766C402.785 151.682 402.887 151.64 403.007 151.64H404.483C404.603 151.64 404.705 151.682 404.789 151.766C404.873 151.85 404.915 151.952 404.915 152.072V152.81C405.623 151.91 406.625 151.46 407.921 151.46C409.025 151.46 409.901 151.826 410.549 152.558C411.197 153.278 411.521 154.262 411.521 155.51V160.568C411.521 160.688 411.479 160.79 411.395 160.874C411.323 160.958 411.221 161 411.089 161H409.505C409.385 161 409.283 160.958 409.199 160.874C409.115 160.79 409.073 160.688 409.073 160.568V155.618C409.073 154.91 408.899 154.364 408.551 153.98C408.215 153.584 407.723 153.386 407.075 153.386C406.439 153.386 405.935 153.584 405.563 153.98C405.203 154.376 405.023 154.922 405.023 155.618V160.568C405.023 160.688 404.981 160.79 404.897 160.874C404.825 160.958 404.723 161 404.591 161H403.007ZM423.158 161.18C421.538 161.18 420.278 160.766 419.378 159.938C418.478 159.11 418.028 157.856 418.028 156.176V148.85C418.028 148.718 418.064 148.61 418.136 148.526C418.22 148.442 418.328 148.4 418.46 148.4H420.098C420.23 148.4 420.332 148.442 420.404 148.526C420.488 148.61 420.53 148.718 420.53 148.85V156.176C420.53 157.136 420.758 157.862 421.214 158.354C421.67 158.834 422.318 159.074 423.158 159.074C423.998 159.074 424.64 158.834 425.084 158.354C425.54 157.862 425.768 157.136 425.768 156.176V148.85C425.768 148.718 425.81 148.61 425.894 148.526C425.978 148.442 426.086 148.4 426.218 148.4H427.838C427.97 148.4 428.072 148.442 428.144 148.526C428.228 148.61 428.27 148.718 428.27 148.85V156.176C428.27 157.856 427.82 159.11 426.92 159.938C426.032 160.766 424.778 161.18 423.158 161.18ZM431.202 164.42C431.082 164.42 430.98 164.378 430.896 164.294C430.812 164.222 430.77 164.12 430.77 163.988V152.072C430.77 151.94 430.812 151.838 430.896 151.766C430.98 151.682 431.082 151.64 431.202 151.64H432.624C432.756 151.64 432.858 151.682 432.93 151.766C433.014 151.838 433.056 151.94 433.056 152.072V152.792C433.728 151.904 434.688 151.46 435.936 151.46C437.148 151.46 438.078 151.844 438.726 152.612C439.374 153.368 439.722 154.394 439.77 155.69C439.782 155.834 439.788 156.044 439.788 156.32C439.788 156.608 439.782 156.824 439.77 156.968C439.722 158.228 439.374 159.248 438.726 160.028C438.078 160.796 437.148 161.18 435.936 161.18C434.724 161.18 433.8 160.754 433.164 159.902V163.988C433.164 164.12 433.122 164.222 433.038 164.294C432.966 164.378 432.864 164.42 432.732 164.42H431.202ZM435.27 159.254C436.566 159.254 437.256 158.456 437.34 156.86C437.352 156.74 437.358 156.56 437.358 156.32C437.358 156.08 437.352 155.9 437.34 155.78C437.256 154.184 436.566 153.386 435.27 153.386C434.574 153.386 434.058 153.608 433.722 154.052C433.386 154.496 433.2 155.042 433.164 155.69L433.146 156.374L433.164 157.076C433.188 157.676 433.374 158.192 433.722 158.624C434.082 159.044 434.598 159.254 435.27 159.254Z" fill="white"/>
</g>
<defs>
<clipPath id="clip0_309_789">
<rect width="815" height="221" rx="20" fill="white"/>
</clipPath>
</defs>
</svg>
