<svg width="108" height="108" viewBox="0 0 108 108" fill="none" xmlns="http://www.w3.org/2000/svg">
<circle cx="54" cy="54" r="52.5" fill="white" stroke="#F6FAFF" stroke-width="3"/>
<path d="M59.5197 19.1749C48.967 21.7021 46.2421 31.5083 38.8197 39.4149C34.2903 44.2398 23.1845 53.0006 20.8797 59.1949C15.7002 73.1152 29.0793 89.2322 43.8797 87.7149C54.4987 86.6262 61.0536 82.916 70.5597 78.0549C82.1996 72.1026 86.3485 73.591 93.0997 62.4149C98.9529 52.7253 87.9937 44.2571 81.1397 35.2749C72.7281 24.2515 73.0471 15.9351 59.5197 19.1749Z" fill="#FFEEEE"/>
<g clip-path="url(#clip0_309_152)">
<path d="M45.8909 81.3991C41.5409 82.9394 36.5875 80.158 34.8272 75.1866C33.0668 70.2153 35.1661 64.9365 39.516 63.3962C43.866 61.8559 48.8193 64.6373 50.5797 69.6087C52.3401 74.58 50.2408 79.8588 45.8909 81.3991Z" fill="#FFBCB9"/>
<path d="M34.8272 75.1866C33.1991 70.5888 34.8741 65.7302 38.5762 63.8071C38.2443 63.8751 37.9138 63.9635 37.5872 64.0792C33.2373 65.6195 31.138 70.8982 32.8983 75.8696C34.6587 80.841 39.6121 83.6224 43.962 82.0821C44.2886 81.9664 44.6011 81.8272 44.9019 81.6711C40.8145 82.5063 36.4553 79.7844 34.8272 75.1866Z" fill="#FFBCB9"/>
<path d="M45.4356 80.1132C41.8016 81.4 37.6197 78.9857 36.1132 74.7313C34.6067 70.4768 36.3374 65.9689 39.9714 64.6821C43.6055 63.3953 47.7873 65.8095 49.2939 70.064C50.8004 74.3185 49.0696 78.8264 45.4356 80.1132Z" fill="#FFBCB9"/>
<path d="M41.9674 76.7819C41.8843 76.7734 41.8161 76.742 41.7628 76.6876C41.7187 76.626 41.7008 76.5548 41.709 76.474L42.4338 69.3509L40.04 69.1073C39.9568 69.0989 39.8887 69.0675 39.8354 69.0131C39.7913 68.9515 39.7733 68.8803 39.7816 68.7995L39.8333 68.2907C39.8415 68.21 39.8735 68.1439 39.9291 68.0924C39.993 68.0418 40.0666 68.0207 40.1497 68.0292L46.1592 68.6407C46.2506 68.65 46.3184 68.6854 46.3625 68.747C46.4158 68.8014 46.4379 68.873 46.4288 68.9619L46.377 69.4707C46.3688 69.5514 46.3328 69.6171 46.2688 69.6677C46.2057 69.7102 46.1326 69.7273 46.0495 69.7188L43.6681 69.4765L42.9433 76.5996C42.9351 76.6804 42.899 76.7461 42.8351 76.7967C42.772 76.8392 42.6988 76.8563 42.6157 76.8478L41.9674 76.7819Z" fill="#F05850"/>
<path d="M34.9404 75.5082L33.0125 76.1909C33.0955 76.405 33.1836 76.6151 33.2784 76.8203L35.2082 76.137C35.1128 75.932 35.0237 75.7222 34.9404 75.5082Z" fill="#F05850"/>
<path d="M34.4448 73.8749L32.5172 74.5574C32.5655 74.7787 32.6222 75.0003 32.6857 75.2213L34.6142 74.5384C34.5511 74.3173 34.4931 74.0962 34.4448 73.8749Z" fill="#F05850"/>
<path d="M35.6865 77.0532L33.7573 77.7363C33.8761 77.9388 34.0002 78.1362 34.13 78.3279L36.0585 77.645C35.9291 77.4532 35.8053 77.2557 35.6865 77.0532Z" fill="#F05850"/>
<path d="M36.7053 78.5012L34.7751 79.1847C34.9348 79.3749 35.1011 79.5566 35.2719 79.7324L37.2011 79.0492C37.0304 78.8738 36.8648 78.6911 36.7053 78.5012Z" fill="#F05850"/>
<path d="M34.2117 72.1484L32.2851 72.8306C32.2972 73.0641 32.3143 73.2986 32.3427 73.5338L34.2738 72.85C34.2457 72.6154 34.2239 72.3811 34.2117 72.1484Z" fill="#F05850"/>
<path d="M34.2829 70.3143L32.354 70.9974C32.322 71.2442 32.2979 71.4937 32.2843 71.7456L34.2145 71.0621C34.2281 70.8106 34.2509 70.5612 34.2829 70.3143Z" fill="#F05850"/>
<path d="M34.9118 67.9209L32.9807 68.6047C32.8701 68.8739 32.7722 69.1499 32.6869 69.4323L34.6174 68.7487C34.703 68.4662 34.8013 68.1901 34.9118 67.9209Z" fill="#F05850"/>
<path d="M36.3086 65.6173L34.3755 66.3018C34.1141 66.6078 33.8751 66.9341 33.6593 67.2789L35.5911 66.5949C35.8072 66.2499 36.0469 65.9234 36.3086 65.6173Z" fill="#F05850"/>
<path d="M38.3759 80.0803L36.446 80.7637C36.6741 80.9336 36.9076 81.0923 37.1469 81.2391L39.0781 80.5553C38.8387 80.4085 38.6043 80.2502 38.3759 80.0803Z" fill="#F05850"/>
<path d="M38.4028 81.8799C38.7433 82.0209 39.09 82.1409 39.4419 82.2355L41.3753 81.5509C41.022 81.4564 40.6728 81.3387 40.3311 81.1971L38.4028 81.8799Z" fill="#F05850"/>
<path d="M45.5496 80.4346C41.7384 81.7842 37.3611 79.2767 35.7918 74.8451C34.2226 70.4135 36.0466 65.7102 39.8577 64.3606C43.6689 63.0111 48.0462 65.5186 49.6155 69.9502C51.1847 74.3818 49.3607 79.0851 45.5496 80.4346ZM40.0854 65.0036C36.6289 66.2276 34.9911 70.5404 36.4348 74.6174C37.8785 78.6944 41.8653 81.0156 45.3219 79.7917C48.7784 78.5677 50.4162 74.2548 48.9725 70.1778C47.5288 66.1008 43.542 63.7796 40.0854 65.0036Z" fill="#F05850"/>
</g>
<g clip-path="url(#clip1_309_152)">
<path d="M61.2622 88.0347C58.6911 84.9698 59.4462 80.1031 62.949 77.1646C66.4517 74.2261 71.3756 74.3286 73.9468 77.3935C76.518 80.4584 75.7628 85.3251 72.2601 88.2636C68.7573 91.2021 63.8334 91.0996 61.2622 88.0347Z" fill="#FFBCB9"/>
<path d="M62.949 77.1647C66.1885 74.447 70.6424 74.3324 73.3278 76.7551C73.1718 76.5061 72.9997 76.2646 72.8067 76.0345C70.2355 72.9696 65.3116 72.8671 61.8088 75.8056C58.3061 78.7441 57.5509 83.6108 60.1221 86.6757C60.3152 86.9058 60.5231 87.1173 60.7411 87.3142C58.8222 84.2485 59.7094 79.8823 62.949 77.1647Z" fill="#FFBCB9"/>
<path d="M62.1682 87.2746C60.0202 84.7142 60.7114 80.5854 63.709 78.0707C66.7067 75.5559 70.8927 75.5931 73.0407 78.1536C75.1887 80.714 74.4975 84.8428 71.4999 87.3576C68.5023 89.8723 64.3162 89.8351 62.1682 87.2746Z" fill="#FFBCB9"/>
<path d="M65.2921 86.2948C65.2279 86.2459 65.1876 86.1856 65.1712 86.114C65.1659 86.041 65.187 85.9733 65.2344 85.9109L69.4222 80.4088L67.5731 79.0014C67.5089 78.9525 67.4686 78.8923 67.4521 78.8206C67.4468 78.7477 67.4679 78.68 67.5154 78.6176L67.8145 78.2246C67.862 78.1622 67.9216 78.1238 67.9934 78.1095C68.0716 78.1 68.1428 78.1197 68.207 78.1686L72.849 81.7016C72.9196 81.7554 72.9575 81.8188 72.9628 81.8917C72.9793 81.9634 72.9614 82.0335 72.9092 82.1021L72.61 82.4951C72.5626 82.5575 72.4997 82.5935 72.4215 82.6029C72.3481 82.6061 72.2793 82.5833 72.2151 82.5344L70.3756 81.1344L66.1879 86.6366C66.1404 86.699 66.0776 86.7349 65.9994 86.7444C65.926 86.7476 65.8571 86.7248 65.7929 86.6759L65.2921 86.2948Z" fill="#F05850"/>
<path d="M62.7221 77.3542L61.5825 75.9958C61.4339 76.1283 61.29 76.2636 61.1521 76.4028L62.2928 77.7626C62.4303 77.6229 62.5736 77.4869 62.7221 77.3542Z" fill="#F05850"/>
<path d="M63.8982 76.4561L62.7588 75.098C62.5938 75.2044 62.4311 75.3177 62.2709 75.4363L63.4108 76.7952C63.5712 76.6768 63.7332 76.5625 63.8982 76.4561Z" fill="#F05850"/>
<path d="M61.694 78.4289L60.5537 77.0696C60.4253 77.2275 60.3027 77.3882 60.1864 77.5518L61.3263 78.9106C61.4428 78.7473 61.5656 78.5868 61.694 78.4289Z" fill="#F05850"/>
<path d="M60.8274 79.696L59.6865 78.3361C59.5805 78.5234 59.4835 78.7137 59.3926 78.9057L60.5329 80.265C60.6236 80.0731 60.7216 79.8832 60.8274 79.696Z" fill="#F05850"/>
<path d="M65.2293 75.7426L64.0905 74.3851C63.9046 74.4658 63.7194 74.5509 63.537 74.6453L64.6784 76.0059C64.8604 75.9119 65.0441 75.8231 65.2293 75.7426Z" fill="#F05850"/>
<path d="M66.7405 75.2438L65.6003 73.8847C65.3902 73.9336 65.1802 73.9898 64.9715 74.0552L66.1124 75.4152C66.3209 75.3499 66.5303 75.2927 66.7405 75.2438Z" fill="#F05850"/>
<path d="M68.8748 75.028L67.7334 73.6673C67.4812 73.6593 67.2273 73.6635 66.9722 73.68L68.1132 75.0402C68.3686 75.0239 68.6227 75.0199 68.8748 75.028Z" fill="#F05850"/>
<path d="M71.1694 75.4629L70.0268 74.1009C69.6989 73.9816 69.3614 73.8865 69.0159 73.816L70.1577 75.1771C70.5034 75.2478 70.8413 75.3433 71.1694 75.4629Z" fill="#F05850"/>
<path d="M60.0521 81.532L58.9114 80.1722C58.8426 80.409 58.7846 80.6468 58.7381 80.8857L59.8795 82.2464C59.9261 82.0074 59.9835 81.769 60.0521 81.532Z" fill="#F05850"/>
<path d="M58.5989 82.1C58.5877 82.4192 58.5955 82.7372 58.6255 83.0517L59.7683 84.414C59.7378 84.0984 59.7273 83.7791 59.7386 83.4586L58.5989 82.1Z" fill="#F05850"/>
<path d="M61.9419 87.4647C59.6892 84.7794 60.3967 80.4636 63.5191 77.8442C66.6416 75.2247 71.0146 75.2783 73.2674 77.9636C75.5201 80.6489 74.8125 84.9646 71.6901 87.5841C68.5676 90.2035 64.1946 90.15 61.9419 87.4647ZM72.8143 78.3436C70.7712 75.9082 66.7718 75.8873 63.8992 78.2972C61.0266 80.707 60.3518 84.6492 62.3949 87.0846C64.438 89.5201 68.4374 89.5409 71.31 87.1311C74.1826 84.7212 74.8574 80.7791 72.8143 78.3436Z" fill="#F05850"/>
</g>
<g clip-path="url(#clip2_309_152)">
<path d="M54.7354 64.5038C45.2165 61.4636 40.3166 50.1801 43.7911 39.3014C47.2655 28.4227 57.7987 22.0683 67.3176 25.1085C76.8365 28.1486 81.7364 39.4321 78.262 50.3108C74.7875 61.1895 64.2543 67.5439 54.7354 64.5038Z" fill="#FFBCB9"/>
<path d="M43.791 39.3014C47.0044 29.2401 56.2557 23.0546 65.1586 24.5863C64.4971 24.2689 63.8114 23.9886 63.0966 23.7603C53.5778 20.7201 43.0446 27.0745 39.5701 37.9533C36.0956 48.832 40.9956 60.1154 50.5145 63.1556C51.2292 63.3839 51.9505 63.553 52.6735 63.6777C44.5309 59.7654 40.5776 49.3626 43.791 39.3014Z" fill="#FFBCB9"/>
<path d="M55.6341 61.6898C47.6819 59.15 43.6315 49.5101 46.605 40.2001C49.5784 30.8902 58.4666 25.3826 66.4188 27.9224C74.371 30.4622 78.4214 40.1021 75.4479 49.4121C72.4745 58.722 63.5863 64.2296 55.6341 61.6898Z" fill="#FFBCB9"/>
<path d="M59.6561 54.6986C59.4697 54.6796 59.3167 54.6092 59.1973 54.4872C59.0983 54.349 59.058 54.1893 59.0765 54.0082L60.7023 38.0303L55.3327 37.4839C55.1463 37.4649 54.9933 37.3944 54.8739 37.2725C54.7749 37.1343 54.7346 36.9746 54.7531 36.7934L54.8692 35.6522C54.8876 35.471 54.9592 35.3227 55.084 35.2073C55.2274 35.0938 55.3923 35.0465 55.5788 35.0655L69.0587 36.4371C69.2638 36.458 69.4158 36.5375 69.5148 36.6757C69.6342 36.7977 69.6838 36.9583 69.6636 37.1575L69.5474 38.2988C69.529 38.48 69.4481 38.6273 69.3047 38.7409C69.1631 38.8363 68.9991 38.8745 68.8126 38.8555L63.471 38.312L61.8452 54.2899C61.8267 54.4711 61.7458 54.6184 61.6024 54.7319C61.4608 54.8273 61.2968 54.8656 61.1104 54.8466L59.6561 54.6986Z" fill="#F05850"/>
<path d="M43.565 40.0044L39.3462 38.657C39.2091 39.1349 39.0859 39.6127 38.9805 40.0907L43.2036 41.4395C43.3075 40.961 43.4286 40.4826 43.565 40.0044Z" fill="#F05850"/>
<path d="M44.8495 36.5384L40.6314 35.1912C40.4249 35.6362 40.2326 36.0926 40.0526 36.5569L44.2728 37.9047C44.4536 37.4407 44.6431 36.9834 44.8495 36.5384Z" fill="#F05850"/>
<path d="M42.8284 43.6454L38.6068 42.2971C38.5464 42.8019 38.502 43.3048 38.4747 43.8054L42.6949 45.1533C42.723 44.6529 42.768 44.1502 42.8284 43.6454Z" fill="#F05850"/>
<path d="M42.6892 47.4772L38.4655 46.1282C38.4916 46.6652 38.5406 47.1964 38.6049 47.7232L42.8265 49.0715C42.762 48.5454 42.7156 48.0135 42.6892 47.4772Z" fill="#F05850"/>
<path d="M46.7079 33.2557L42.4919 31.9091C42.2071 32.3275 41.9297 32.7544 41.6704 33.1973L45.8962 34.5469C46.1551 34.1055 46.4243 33.6729 46.7079 33.2557Z" fill="#F05850"/>
<path d="M49.2329 30.1858L45.0119 28.8377C44.6335 29.2215 44.2651 29.6202 43.9118 30.0369L48.1356 31.3858C48.4886 30.9699 48.8544 30.5696 49.2329 30.1858Z" fill="#F05850"/>
<path d="M53.4517 26.8819L49.2259 25.5323C48.6827 25.8519 48.1523 26.1995 47.6355 26.5748L51.8599 27.924C52.3774 27.549 52.9086 27.2015 53.4517 26.8819Z" fill="#F05850"/>
<path d="M58.8769 24.7385L54.6469 23.3874C53.7953 23.5729 52.9558 23.8226 52.1321 24.1348L56.3593 25.4849C57.1838 25.173 58.0247 24.9237 58.8769 24.7385Z" fill="#F05850"/>
<path d="M43.5022 52.3883L39.2792 51.0396C39.4499 51.6313 39.6447 52.2106 39.8653 52.7773L44.0912 54.1269C43.8706 53.5603 43.6736 52.9803 43.5022 52.3883Z" fill="#F05850"/>
<path d="M41.192 55.5267C41.5945 56.2158 42.0353 56.8768 42.5183 57.5008L46.749 58.852C46.2635 58.2264 45.8154 57.5662 45.4115 56.8744L41.192 55.5267Z" fill="#F05850"/>
<path d="M55.4095 62.3933C47.0696 59.7297 42.8043 49.6731 45.9015 39.9755C48.9987 30.2779 58.3037 24.5554 66.6435 27.219C74.9834 29.8826 79.2487 39.9392 76.1515 49.6368C73.0542 59.3344 63.7493 65.0569 55.4095 62.3933ZM66.1942 28.6259C58.6303 26.2102 50.1579 31.5032 47.3085 40.4249C44.4591 49.3465 48.2949 58.5706 55.8588 60.9864C63.4227 63.4021 71.8951 58.1091 74.7445 49.1874C77.5939 40.2658 73.7581 31.0417 66.1942 28.6259Z" fill="#F05850"/>
</g>
<defs>
<clipPath id="clip0_309_152">
<rect width="19.0982" height="19.0982" fill="white" transform="translate(29.5503 66.925) rotate(-19.499)"/>
</clipPath>
<clipPath id="clip1_309_152">
<rect width="16.557" height="16.557" fill="white" transform="translate(68.0562 70.3717) rotate(50.0063)"/>
</clipPath>
<clipPath id="clip2_309_152">
<rect width="41.3558" height="41.3558" fill="white" transform="translate(45.5095 18.1433) rotate(17.7126)"/>
</clipPath>
</defs>
</svg>
