<svg width="108" height="108" viewBox="0 0 108 108" fill="none" xmlns="http://www.w3.org/2000/svg">
<circle cx="54" cy="54" r="52.5" fill="white" stroke="#F6FAFF" stroke-width="3"/>
<path d="M57.6996 19.96C47.1469 22.4873 44.422 32.2934 36.9996 40.2001C32.4702 45.0249 21.3644 53.7857 19.0596 59.98C13.8802 73.9003 27.2592 90.0174 42.0596 88.5C52.6787 87.4113 59.2335 83.7011 68.7396 78.84C80.3796 72.8877 84.5285 74.3762 91.2796 63.2C97.1328 53.5104 86.1737 45.0422 79.3196 36.06C70.908 25.0366 71.2271 16.7203 57.6996 19.96Z" fill="#FFEEEE"/>
<path d="M35.1212 28.9604H44.8514V31.8609H35.1212C34.2264 31.8609 33.4137 32.2312 32.8172 32.8175C32.231 33.414 31.8607 34.2267 31.8607 35.1215V44.8516H28.9602V35.1215C28.9602 33.4244 29.6493 31.8816 30.7705 30.7706C31.8916 29.6497 33.4344 28.9604 35.1212 28.9604ZM63.0984 28.9604H72.8286C74.5257 28.9604 76.0685 29.6495 77.1795 30.7707C78.3007 31.892 78.9898 33.4244 78.9898 35.1217V44.8518H76.0893V35.1217C76.0893 34.2268 75.719 33.4142 75.1328 32.8177C74.5363 32.2314 73.7236 31.8611 72.8288 31.8611H63.0986V28.9604H63.0984V28.9604ZM79 63.0987V72.8288C79 74.5259 78.311 76.0687 77.1897 77.1798C76.0685 78.301 74.5361 78.9901 72.8388 78.9901H63.1087V76.0896H72.8388C73.7336 76.0896 74.5463 75.7193 75.1428 75.133C75.7291 74.5365 76.0994 73.7239 76.0994 72.829V63.0987H79ZM44.8618 79.0005H35.1317C33.4346 79.0005 31.8917 78.3114 30.7807 77.1902C29.6595 76.0689 28.9704 74.5261 28.9704 72.8392V63.1091H31.8709V72.8392C31.8709 73.7341 32.2412 74.5467 32.8275 75.1432C33.424 75.7295 34.2366 76.0998 35.1315 76.0998H44.8616L44.8618 79.0005Z" fill="#F05850"/>
<path d="M45.3453 58.316H45.9522L49.4904 56.3925L50.0665 54.1398C49.2229 53.286 48.359 51.846 47.5567 50.077C47.495 50.0872 47.423 50.0976 47.3612 50.0976C46.4252 50.0976 45.4995 49.0794 45.2938 47.8245C45.1291 46.8475 45.4585 46.004 46.055 45.6852C45.2629 41.6532 44.7384 35.4611 51.6812 33.9287C55.8468 33.0133 57.3383 36.2225 57.5132 36.5824C60.0332 35.163 61.6378 37.2921 62.0493 38.4131C62.79 40.4394 62.5534 44.2143 62.1727 45.8805C62.5943 46.2817 62.8001 47.0018 62.6562 47.8143C62.4504 49.0485 61.5556 50.0565 60.6299 50.0874C59.8892 51.723 58.8916 53.1113 57.8837 54.1298L58.4597 56.3824H58.5111L61.9465 58.3059H62.6047C67.1408 58.3059 70.8538 61.8853 70.8538 66.226V72.6443H37.0858V66.226C37.0858 61.8648 40.799 58.3059 45.3349 58.3059L45.3453 58.316Z" fill="#F05850"/>
</svg>
