<svg width="108" height="108" viewBox="0 0 108 108" fill="none" xmlns="http://www.w3.org/2000/svg">
<circle cx="54" cy="54" r="52.5" fill="white" stroke="#F6FAFF" stroke-width="3"/>
<path d="M59.5197 19.1749C48.967 21.7021 46.2421 31.5083 38.8197 39.4149C34.2903 44.2398 23.1845 53.0006 20.8797 59.1949C15.7002 73.1152 29.0793 89.2322 43.8797 87.7149C54.4987 86.6262 61.0536 82.916 70.5597 78.0549C82.1996 72.1026 86.3485 73.591 93.0997 62.4149C98.9529 52.7253 87.9937 44.2571 81.1397 35.2749C72.7281 24.2515 73.0471 15.9351 59.5197 19.1749Z" fill="#FFEEEE"/>
<path d="M57 82C43.469 82 32.5 69.464 32.5 54C32.5 38.536 43.469 26 57 26C70.531 26 81.5 38.536 81.5 54C81.5 69.464 70.531 82 57 82Z" fill="#FFBCB9"/>
<path d="M32.5 54C32.5 39.698 41.885 27.908 54 26.216C53.016 26.079 52.016 26 51 26C37.469 26 26.5 38.536 26.5 54C26.5 69.464 37.469 82 51 82C52.016 82 53.016 81.921 54 81.784C41.885 80.092 32.5 68.302 32.5 54Z" fill="#FFBCB9"/>
<path d="M57 78C45.696 78 36.5 67.234 36.5 54C36.5 40.766 45.696 30 57 30C68.304 30 77.5 40.766 77.5 54C77.5 67.234 68.304 78 57 78Z" fill="#FFBCB9"/>
<path d="M32.498 55H26.501C26.521 55.673 26.559 56.34 26.62 57H32.623C32.56 56.34 32.519 55.673 32.498 55Z" fill="#F05850"/>
<path d="M32.7271 50H26.7311C26.6481 50.659 26.5881 51.327 26.5471 52H32.5461C32.5881 51.327 32.6441 50.659 32.7271 50Z" fill="#F05850"/>
<path d="M33.0481 60H27.0471C27.1771 60.676 27.3271 61.343 27.4981 62H33.4971C33.3271 61.343 33.1781 60.676 33.0481 60Z" fill="#F05850"/>
<path d="M34.4471 65H28.4431C28.6981 65.682 28.9801 66.347 29.2801 67H35.2811C34.9811 66.348 34.7021 65.681 34.4471 65Z" fill="#F05850"/>
<path d="M33.772 45H27.779C27.584 45.657 27.402 46.322 27.25 47H33.257C33.409 46.324 33.578 45.655 33.772 45Z" fill="#F05850"/>
<path d="M35.7641 40H29.7641C29.4341 40.651 29.1231 41.317 28.8391 42H34.8431C35.1271 41.318 35.4341 40.651 35.7641 40Z" fill="#F05850"/>
<path d="M39.8449 34H33.8379C33.2689 34.636 32.7279 35.303 32.2159 36H38.2209C38.7339 35.303 39.2759 34.636 39.8449 34Z" fill="#F05850"/>
<path d="M45.96 29H39.947C38.925 29.59 37.945 30.258 37.011 31H43.02C43.955 30.258 44.937 29.59 45.96 29Z" fill="#F05850"/>
<path d="M37.5191 71H31.5161C31.9801 71.693 32.4701 72.36 32.9881 73H38.9951C38.4771 72.36 37.9841 71.693 37.5191 71Z" fill="#F05850"/>
<path d="M35.832 76C36.635 76.723 37.476 77.394 38.356 78H44.37C43.486 77.393 42.636 76.726 41.83 76H35.832Z" fill="#F05850"/>
<path d="M57 79C45.145 79 35.5 67.785 35.5 54C35.5 40.215 45.145 29 57 29C68.855 29 78.5 40.215 78.5 54C78.5 67.785 68.855 79 57 79ZM57 31C46.248 31 37.5 41.318 37.5 54C37.5 66.682 46.248 77 57 77C67.752 77 76.5 66.682 76.5 54C76.5 41.318 67.752 31 57 31Z" fill="#F05850"/>
<path d="M54.1967 69.0648C53.9335 69.038 53.7175 68.9385 53.5488 68.7662C53.409 68.5711 53.3522 68.3456 53.3782 68.0898L55.6741 45.5263L48.0914 44.7547C47.8281 44.7279 47.6121 44.6284 47.4434 44.4562C47.3036 44.261 47.2468 44.0355 47.2728 43.7797L47.4368 42.168C47.4628 41.9122 47.564 41.7028 47.7401 41.5398C47.9427 41.3795 48.1756 41.3127 48.4389 41.3395L67.4748 43.2765C67.7644 43.306 67.9791 43.4183 68.1189 43.6134C68.2875 43.7857 68.3576 44.0125 68.3289 44.2939L68.1649 45.9056C68.1389 46.1614 68.0246 46.3695 67.8221 46.5298C67.6222 46.6645 67.3906 46.7185 67.1273 46.6917L59.584 45.9241L57.2881 68.4876C57.262 68.7435 57.1478 68.9515 56.9452 69.1119C56.7453 69.2466 56.5137 69.3006 56.2504 69.2738L54.1967 69.0648Z" fill="#F05850"/>
</svg>
