<svg width="589" height="698" viewBox="0 0 589 698" fill="none" xmlns="http://www.w3.org/2000/svg">
<path d="M28 50C-25.3856 -45.5712 14 -157.5 14 -157.5H575.5C575.5 -157.5 839.714 862.771 575.5 674C432.825 572.064 472.466 392.667 362 279C260.24 174.291 99.2049 177.472 28 50Z" fill="#EE4138"/>
<g filter="url(#filter0_d_309_52)">
<path d="M86.1373 21.712C36.2897 -67.5087 73.0651 -172 73.0651 -172H597.354C597.354 -172 844.058 780.476 597.354 604.248C464.134 509.086 501.148 341.609 398.003 235.495C302.986 137.744 152.623 140.713 86.1373 21.712Z" fill="#F05850"/>
</g>
<defs>
<filter id="filter0_d_309_52" x="10" y="-218" width="747" height="898" filterUnits="userSpaceOnUse" color-interpolation-filters="sRGB">
<feFlood flood-opacity="0" result="BackgroundImageFix"/>
<feColorMatrix in="SourceAlpha" type="matrix" values="0 0 0 0 0 0 0 0 0 0 0 0 0 0 0 0 0 0 127 0" result="hardAlpha"/>
<feOffset dy="4"/>
<feGaussianBlur stdDeviation="25"/>
<feComposite in2="hardAlpha" operator="out"/>
<feColorMatrix type="matrix" values="0 0 0 0 0.825 0 0 0 0 0.825 0 0 0 0 0.825 0 0 0 0.05 0"/>
<feBlend mode="normal" in2="BackgroundImageFix" result="effect1_dropShadow_309_52"/>
<feBlend mode="normal" in="SourceGraphic" in2="effect1_dropShadow_309_52" result="shape"/>
</filter>
</defs>
</svg>
