<svg width="14" height="14" viewBox="0 0 14 14" fill="none" xmlns="http://www.w3.org/2000/svg">
<path d="M12.1933 1.81332C10.22 -0.153349 7.02 -0.153349 5.06 1.81332C3.68 3.17998 3.26666 5.14665 3.8 6.87998L0.666663 10.0133C0.446663 10.24 0.293329 10.6867 0.339996 11.0067L0.539996 12.46C0.613329 12.94 1.06 13.3933 1.54 13.46L2.99333 13.66C3.31333 13.7067 3.76 13.56 3.98666 13.3267L4.53333 12.78C4.66666 12.6533 4.66666 12.44 4.53333 12.3067L3.24 11.0133C3.04666 10.82 3.04666 10.5 3.24 10.3067C3.43333 10.1133 3.75333 10.1133 3.94666 10.3067L5.24666 11.6067C5.37333 11.7333 5.58666 11.7333 5.71333 11.6067L7.12666 10.2C8.85333 10.74 10.82 10.32 12.1933 8.95332C14.16 6.98665 14.16 3.77998 12.1933 1.81332ZM8.66666 6.99998C7.74666 6.99998 7 6.25332 7 5.33332C7 4.41332 7.74666 3.66665 8.66666 3.66665C9.58666 3.66665 10.3333 4.41332 10.3333 5.33332C10.3333 6.25332 9.58666 6.99998 8.66666 6.99998Z" fill="#F05850"/>
</svg>
