<svg width="24" height="24" viewBox="0 0 24 24" fill="none" xmlns="http://www.w3.org/2000/svg">
<path d="M9 2C6.38 2 4.25 4.13 4.25 6.75C4.25 9.32 6.26 11.4 8.88 11.49C8.96 11.48 9.04 11.48 9.1 11.49C9.12 11.49 9.13 11.49 9.15 11.49C9.16 11.49 9.16 11.49 9.17 11.49C11.73 11.4 13.74 9.32 13.75 6.75C13.75 4.13 11.62 2 9 2Z" fill="#F05850"/>
<path d="M14.08 14.1499C11.29 12.2899 6.73996 12.2899 3.92996 14.1499C2.65996 14.9999 1.95996 16.1499 1.95996 17.3799C1.95996 18.6099 2.65996 19.7499 3.91996 20.5899C5.31996 21.5299 7.15996 21.9999 8.99996 21.9999C10.84 21.9999 12.68 21.5299 14.08 20.5899C15.34 19.7399 16.04 18.5999 16.04 17.3599C16.03 16.1299 15.34 14.9899 14.08 14.1499Z" fill="#F05850"/>
<path d="M19.99 7.33998C20.15 9.27998 18.77 10.98 16.86 11.21C16.85 11.21 16.85 11.21 16.84 11.21H16.81C16.75 11.21 16.69 11.21 16.64 11.23C15.67 11.28 14.78 10.97 14.11 10.4C15.14 9.47998 15.73 8.09998 15.61 6.59998C15.54 5.78998 15.26 5.04998 14.84 4.41998C15.22 4.22998 15.66 4.10998 16.11 4.06998C18.07 3.89998 19.82 5.35998 19.99 7.33998Z" fill="#F05850"/>
<path d="M21.99 16.59C21.91 17.56 21.29 18.4 20.25 18.97C19.25 19.52 17.99 19.78 16.74 19.75C17.46 19.1 17.88 18.29 17.96 17.43C18.06 16.19 17.47 15 16.29 14.05C15.62 13.52 14.84 13.1 13.99 12.79C16.2 12.15 18.98 12.58 20.69 13.96C21.61 14.7 22.08 15.63 21.99 16.59Z" fill="#F05850"/>
</svg>
